<?xml version="1.0" standalone="no"?>
<!DOCTYPE svg PUBLIC "-//W3C//DTD SVG 20010904//EN"
 "http://www.w3.org/TR/2001/REC-SVG-20010904/DTD/svg10.dtd">
<svg version="1.0" xmlns="http://www.w3.org/2000/svg"
 width="512.000000pt" height="512.000000pt" viewBox="0 0 512.000000 512.000000"
 preserveAspectRatio="xMidYMid meet">

<g transform="translate(0.000000,512.000000) scale(0.100000,-0.100000)"
fill="#ffffff" stroke="none">
<path d="M26 5094 l-26 -27 0 -2498 c0 -1809 3 -2505 11 -2522 6 -14 22 -30
36 -36 35 -16 4996 -16 5026 1 32 17 46 39 47 73 0 26 -59 89 -477 507 -453
453 -480 478 -514 478 -24 0 -42 -7 -57 -23 -21 -23 -22 -30 -22 -285 l0 -262
-125 0 -125 0 0 1160 c0 828 -3 1166 -11 1183 -20 44 -44 47 -330 47 l-270 0
-24 -25 -25 -24 0 -1171 0 -1170 -85 0 -85 0 0 923 0 924 -23 21 c-23 22 -30
22 -304 22 -262 0 -282 -1 -304 -19 l-24 -19 -3 -926 -2 -926 -80 0 -80 0 -2
676 -3 676 -28 24 -28 24 -275 0 -275 0 -24 -25 -25 -24 0 -676 0 -675 -85 0
-85 0 0 669 c0 368 -3 677 -6 686 -16 40 -51 45 -329 45 l-267 0 -29 -29 -29
-29 0 -671 0 -671 -80 0 -80 0 0 905 0 905 418 0 419 0 12 -42 c19 -62 120
-159 189 -183 120 -39 254 -10 340 73 73 71 97 128 98 235 l1 87 543 339 543
340 30 -25 c58 -48 108 -67 192 -72 65 -3 91 0 138 18 71 27 145 97 178 168
l24 52 381 0 380 0 24 -52 c32 -72 105 -141 177 -168 47 -18 73 -21 138 -18
100 6 163 35 228 108 79 87 102 213 62 330 -26 77 -118 170 -195 195 -167 56
-340 -18 -413 -177 l-22 -48 -381 0 -381 0 -17 44 c-43 112 -170 199 -294 199
-103 1 -165 -24 -238 -97 -74 -74 -98 -135 -99 -244 l0 -74 -540 -338 -540
-337 -38 29 c-83 66 -217 87 -323 51 -65 -22 -167 -122 -185 -181 l-12 -42
-419 0 -418 0 0 785 0 785 263 0 c263 0 264 0 285 23 14 15 22 36 22 58 0 32
-32 66 -478 512 -424 423 -481 477 -508 477 -20 0 -41 -9 -58 -26z m553 -884
c-207 -5 -211 -5 -230 -29 -19 -23 -19 -68 -19 -1902 0 -1355 3 -1885 11
-1902 6 -14 22 -30 36 -36 17 -8 547 -11 1902 -11 1834 0 1879 0 1902 19 24
19 24 23 29 230 l5 211 310 -310 310 -310 -2333 0 -2332 0 0 2332 0 2333 310
-310 310 -310 -211 -5z m2805 -683 c45 -25 86 -93 86 -142 0 -52 -40 -116 -90
-142 -52 -28 -91 -29 -146 -4 -48 22 -83 66 -91 115 -23 142 118 243 241 173z
m1413 -3 c52 -39 68 -71 68 -137 0 -75 -27 -120 -89 -148 -55 -25 -94 -24
-146 4 -50 26 -90 90 -90 142 0 49 41 117 86 143 48 28 130 26 171 -4z m-1167
-1909 l0 -1115 -165 0 -165 0 0 1108 c0 610 3 1112 7 1115 3 4 78 7 165 7
l158 0 0 -1115z m-1917 931 c18 -7 46 -29 63 -48 60 -68 53 -159 -15 -221 -64
-57 -150 -62 -211 -10 -42 35 -60 73 -60 128 0 119 114 197 223 151z m1097
-1181 l0 -865 -165 0 -165 0 0 865 0 865 165 0 165 0 0 -865z m-1650 -250 l0
-615 -165 0 -165 0 0 615 0 615 165 0 165 0 0 -615z m820 0 l0 -615 -165 0
-165 0 0 615 0 615 165 0 165 0 0 -615z"/>
<path d="M1488 5038 l-3 -83 -102 -3 c-96 -3 -103 -4 -123 -29 -45 -57 -36
-70 167 -275 l187 -188 -187 0 -187 0 0 -85 0 -85 125 0 125 0 0 -80 0 -80 80
0 80 0 0 80 0 80 88 0 c95 0 129 11 151 51 27 48 9 74 -182 267 l-181 182 187
0 187 0 0 80 0 79 -122 3 -123 3 -3 83 -3 82 -79 0 -79 0 -3 -82z"/>
<path d="M2045 3941 c-51 -23 -118 -98 -133 -149 -7 -22 -12 -67 -12 -101 l0
-61 -85 0 -85 0 0 -80 0 -80 85 0 85 0 0 -67 c0 -114 52 -198 150 -242 38 -17
66 -21 180 -21 114 0 142 4 180 21 97 44 141 113 148 232 l5 78 -84 -3 -84 -3
-3 -45 c-4 -72 -11 -89 -42 -105 -40 -21 -200 -21 -240 0 -33 17 -54 70 -48
120 l3 30 83 3 82 3 0 79 0 79 -82 3 -83 3 1 59 c1 52 5 63 28 83 25 21 37 23
135 23 139 0 154 -9 161 -102 l5 -63 83 -3 82 -3 0 68 c0 84 -29 153 -85 202
-63 55 -89 61 -247 61 -117 0 -150 -4 -183 -19z"/>
</g>
</svg>
