<svg width="1000" height="1000" xmlns="http://www.w3.org/2000/svg">
 <g id="Layer_1">
  <title>Layer 1</title>
  <g stroke="null">
   <g stroke="null" id="svg_1">
    <title stroke="null">Layer 1</title>
    <g stroke="null">
     <title stroke="null">handshake-deal</title>
     <path stroke="null" fill="#004CAE" d="m674.82024,227.8115c-2.50549,-2.32032 -5.34504,-4.14343 -8.35163,-5.13785l-190.25003,-58.00796c-76.16683,-23.53466 -125.60845,17.23665 -138.97105,30.32988c-7.6835,7.45817 -13.69667,15.41354 -16.87028,22.70597l-84.85252,194.07805c-5.01098,10.93864 -3.17362,26.02071 4.34285,40.93704c11.02415,20.88286 30.56695,36.13067 53.9515,41.59999c26.2241,5.96653 53.4504,-2.32032 74.83057,-23.20318c5.51207,-5.30358 10.18898,-11.43585 13.19557,-16.40797l28.56256,-51.37848c4.50988,-8.61833 11.35821,-17.56812 18.54061,-24.52908c24.55378,-23.70039 36.07902,-13.09322 41.09,-8.28685c42.59329,40.2741 266.08279,258.54976 266.08279,258.54976c8.01756,7.6239 6.34724,22.54024 -3.67472,31.98725c-10.02195,9.44701 -25.05488,11.27012 -32.90541,3.48048l-62.63719,-61.15696c-8.18459,-7.78964 -21.21313,-7.78964 -29.23069,0c-8.18459,7.95538 -8.18459,20.55139 0,28.50677l62.63719,61.15696c7.85053,7.6239 6.34724,22.54024 -3.67472,31.98725c-10.02195,9.77848 -25.05488,11.27012 -32.73837,3.48048l-62.80422,-60.99122c-8.01756,-7.78964 -21.38016,-7.78964 -29.23069,0c-8.01756,7.6239 -8.01756,20.55139 0,28.50677l62.80422,61.3227c7.6835,7.6239 6.1802,22.04302 -3.84175,31.82151c-9.85492,9.77848 -24.88784,11.27012 -32.90541,3.64621l-62.80422,-60.99122c-7.85053,-7.95538 -21.0461,-7.95538 -29.06366,0c-8.01756,7.78964 -8.01756,20.38565 0,28.50677l62.63719,60.99122c8.01756,7.6239 6.34724,22.54024 -3.50768,31.98725c-10.02195,9.77848 -25.05488,11.43585 -32.90541,3.81195l-76.83496,-74.7474c11.02415,-16.07649 7.85053,-39.11394 -8.18459,-55.02469c-18.20654,-17.56812 -46.10097,-19.05976 -62.30313,-3.64621c16.20215,-15.57928 14.53183,-42.76015 -3.50768,-60.32828c-18.20654,-17.8996 -46.26801,-19.39123 -62.30313,-3.81195c16.03512,-15.74502 14.53183,-42.76015 -3.84175,-60.32828c-18.20654,-17.8996 -45.93394,-19.55697 -62.30313,-3.81195c16.36919,-15.91075 14.53183,-42.76015 -3.50768,-60.65975c-17.03732,-16.24223 -42.42626,-18.72828 -58.96248,-6.13227l-123.77109,-120.65655c-8.01756,-7.6239 -21.21313,-7.6239 -29.23069,0c-7.85053,7.95538 -7.85053,20.71713 0,28.50677l123.60406,120.15934l-36.74715,35.7992c-16.20215,15.74502 -14.53183,42.76015 3.67472,60.49401c18.20654,17.73386 46.10097,19.22549 62.30313,3.64621c-16.20215,15.57928 -14.69886,42.76015 3.67472,60.65975c18.20654,17.56812 45.93394,19.22549 62.30313,3.31474c-16.36919,15.91075 -14.53183,43.09163 3.50768,60.65975c18.20654,17.8996 46.26801,19.39123 62.30313,3.64621c-16.03512,15.57928 -14.53183,42.76015 3.84175,60.65975c18.20654,17.73386 45.93394,19.05976 62.13609,3.64621l38.75154,-37.78804l75.99979,73.91871c24.21971,23.70039 65.14268,21.71155 91.36678,-3.81195c12.8615,-12.26454 19.70984,-28.34103 20.545,-43.92031c16.20215,-0.82869 32.40431,-7.6239 45.26581,-20.05418c12.8615,-12.43028 19.70984,-28.17529 20.545,-44.08605c16.20215,-0.82869 32.40431,-7.45817 45.26581,-19.88844c12.8615,-12.43028 19.70984,-28.34103 20.545,-44.25179c16.20215,-0.82869 32.40431,-7.6239 45.26581,-20.05418c26.39114,-25.5235 27.7274,-65.30039 3.67472,-88.83504l-32.07024,-31.3243l131.62162,-127.94898c8.01756,-7.6239 8.01756,-20.55139 0,-28.50677l-190.083,-184.79678l0,0zm311.3486,44.91473l-167.36658,-162.91949c-16.20215,-15.91075 -42.25923,-15.91075 -58.62841,0l-58.46138,57.01354c-16.03512,15.57928 -16.03512,41.26852 0,56.8478l167.53361,162.91949c16.20215,15.91075 42.42626,15.91075 58.62841,0l58.62841,-56.8478c15.86809,-15.57928 15.86809,-41.26852 -0.33407,-57.01354l0,0zm-87.8591,83.03425c-18.70764,0 -33.9076,-14.7506 -33.9076,-32.98167s15.03293,-33.1474 33.9076,-33.1474s34.07463,14.7506 34.07463,33.1474c0,18.23107 -15.36699,32.98167 -34.07463,32.98167z"/>
    </g>
   </g>
  </g>
 </g>

</svg>