<?xml version="1.0" standalone="no"?>
<!DOCTYPE svg PUBLIC "-//W3C//DTD SVG 20010904//EN"
 "http://www.w3.org/TR/2001/REC-SVG-20010904/DTD/svg10.dtd">
<svg version="1.0" xmlns="http://www.w3.org/2000/svg"
 width="512.000000pt" height="512.000000pt" viewBox="0 0 512.000000 512.000000"
 preserveAspectRatio="xMidYMid meet">

<g transform="translate(0.000000,512.000000) scale(0.100000,-0.100000)"
fill="#ffffff" stroke="none">
<path d="M2936 5104 c-57 -21 -102 -58 -133 -111 -22 -37 -28 -62 -31 -128
l-4 -82 -132 -7 c-460 -24 -864 -156 -1233 -402 -104 -70 -297 -227 -352 -288
-24 -26 -25 -26 -173 -26 -135 0 -150 -2 -168 -20 -30 -30 -27 -83 6 -109 26
-21 35 -21 581 -21 l555 0 29 -29 29 -29 0 -661 0 -660 -24 -28 c-24 -27 -28
-28 -148 -33 -144 -6 -185 -22 -233 -89 -29 -41 -30 -48 -34 -161 l-3 -118
-242 173 c-132 95 -256 177 -275 184 -23 7 -149 11 -378 11 -373 0 -387 2
-411 55 -9 19 -12 191 -12 666 0 580 2 644 17 669 24 41 53 50 162 50 84 0
102 3 125 21 33 26 36 79 5 110 -20 20 -30 21 -152 17 -123 -3 -135 -5 -179
-31 -26 -15 -59 -42 -72 -60 -57 -74 -56 -63 -56 -777 0 -714 -1 -703 56 -777
44 -58 106 -86 200 -91 l83 -4 5 -42 c2 -22 10 -92 16 -155 52 -531 309 -1056
706 -1441 196 -190 363 -309 604 -429 806 -401 1761 -316 2487 222 131 97 323
283 323 313 0 38 -37 74 -76 74 -30 0 -48 -13 -137 -97 -115 -109 -254 -216
-380 -292 -47 -28 -87 -51 -90 -51 -7 0 -271 331 -304 381 -14 21 -22 43 -18
48 4 8 116 11 340 11 203 0 354 4 385 11 73 16 137 63 174 129 l31 55 2 677 2
676 50 77 c118 181 166 413 127 618 -15 75 -57 195 -82 232 -27 38 -18 45 59
45 49 0 85 6 115 20 l42 19 24 -47 c45 -89 115 -278 145 -392 166 -623 70
-1252 -273 -1800 -36 -57 -66 -112 -66 -121 0 -32 39 -69 74 -69 41 0 67 27
137 140 426 690 475 1553 128 2279 l-60 125 -2 705 -2 706 -27 46 c-31 53 -80
94 -139 114 -61 22 -1664 21 -1723 -1z m1710 -168 l34 -34 0 -655 0 -656 -24
-28 -24 -28 -374 -5 c-322 -4 -377 -7 -403 -22 -16 -9 -133 -91 -260 -182
l-230 -166 -5 118 c-5 108 -7 122 -33 160 -43 66 -90 84 -235 91 -120 6 -125
7 -148 34 -23 27 -24 33 -24 196 0 155 -2 170 -21 195 -26 33 -79 36 -109 6
-19 -19 -20 -33 -20 -202 0 -171 2 -186 24 -233 12 -28 40 -65 60 -83 l38 -33
-15 -73 c-21 -104 -62 -181 -132 -252 -169 -171 -412 -187 -637 -42 l-48 30 0
334 0 334 30 53 c84 150 76 366 -22 562 -17 33 -44 77 -61 98 -37 47 -39 45
102 86 178 52 437 91 609 91 l52 0 0 -200 c0 -187 1 -201 20 -220 30 -30 83
-27 109 6 20 26 21 38 21 350 0 209 4 331 11 347 6 13 23 31 37 40 25 15 100
16 836 17 l808 0 34 -34z m-2711 -652 c39 -78 65 -181 65 -258 l0 -49 -22 20
c-62 57 -69 58 -413 63 l-320 5 70 58 c102 85 274 197 400 262 l110 56 37 -43
c21 -24 54 -75 73 -114z m1265 -924 c5 -8 10 -70 10 -138 0 -71 5 -133 11
-145 33 -64 97 -95 158 -77 18 5 102 59 187 121 85 61 158 108 161 105 12 -11
-19 -121 -53 -192 -20 -41 -64 -103 -103 -148 -75 -83 -107 -140 -124 -223
l-11 -53 -431 0 c-501 0 -507 -1 -585 -80 -49 -48 -80 -117 -80 -179 -1 -21
-12 -33 -61 -61 -74 -42 -157 -124 -193 -190 -36 -66 -86 -215 -86 -257 0 -66
74 -97 118 -50 11 12 35 64 51 114 35 108 62 154 122 208 l44 39 5 -549 5
-550 23 -47 c26 -52 63 -88 126 -120 32 -17 66 -22 159 -26 143 -6 137 1 137
-170 0 -100 3 -122 20 -150 41 -68 129 -78 205 -24 22 16 104 74 181 130 78
56 144 102 147 102 2 0 16 -18 30 -39 15 -22 83 -110 152 -196 69 -86 125
-160 125 -165 0 -9 -148 -66 -268 -104 -365 -115 -830 -124 -1207 -26 -492
129 -924 417 -1225 816 -68 90 -170 247 -170 261 0 12 143 115 205 147 67 35
140 44 181 23 16 -8 61 -46 99 -85 79 -77 136 -105 261 -124 166 -26 361 60
453 199 35 53 35 85 -1 115 -39 34 -68 23 -137 -48 -99 -103 -194 -138 -314
-114 -85 17 -112 32 -188 110 -151 154 -313 147 -552 -24 -43 -31 -80 -56 -82
-56 -5 0 -66 150 -96 239 -57 167 -97 373 -113 574 l-5 67 208 0 209 0 236
-171 c286 -206 296 -212 347 -211 48 1 83 21 109 65 17 27 20 51 20 159 0 162
-4 158 138 158 86 0 116 4 152 21 60 27 98 64 126 124 22 47 24 61 24 236 l0
187 79 -34 c212 -92 422 -79 606 36 135 86 249 251 276 400 6 36 13 71 15 79
6 19 151 11 164 -9z m1119 -15 c43 -50 99 -172 117 -257 31 -141 4 -321 -67
-458 -45 -87 -39 -84 -99 -53 l-54 28 -314 3 -313 3 7 32 c10 49 27 76 94 152
122 138 173 259 193 451 9 98 14 114 31 123 12 5 100 10 197 10 l177 1 31 -35z
m-112 -905 c22 -13 35 -31 43 -59 7 -27 10 -242 8 -668 -3 -518 -5 -632 -17
-649 -32 -48 -34 -49 -426 -54 -323 -4 -374 -7 -400 -22 -16 -9 -129 -89 -250
-176 l-220 -160 -6 102 c-7 117 -12 139 -46 184 -41 54 -75 66 -208 72 -134 7
-166 19 -184 72 -7 21 -11 237 -11 660 0 542 2 633 15 658 32 62 -6 59 870 60
776 0 801 -1 832 -20z"/>
<path d="M3745 4800 c-13 -15 -20 -42 -23 -100 l-5 -80 -208 0 -208 0 -20 -26
c-24 -31 -26 -43 -10 -78 16 -34 31 -39 132 -46 l89 -5 27 -85 c33 -102 78
-193 137 -277 l43 -62 -37 -32 c-57 -51 -160 -113 -257 -158 -98 -45 -115 -60
-115 -103 0 -38 32 -68 73 -68 64 0 301 130 398 217 l39 35 46 -41 c68 -60
142 -106 257 -161 112 -54 156 -61 187 -30 23 23 26 68 8 93 -7 9 -53 35 -103
58 -97 45 -200 107 -257 158 l-37 32 43 62 c58 82 100 168 136 275 l29 87 88
5 c101 7 116 12 132 46 16 35 14 47 -10 77 l-20 27 -212 2 -212 3 -3 80 c-2
56 -8 85 -19 97 -23 25 -85 24 -108 -2z m205 -341 c0 -40 -130 -299 -150 -299
-21 0 -150 259 -150 300 0 6 59 10 150 10 101 0 150 -4 150 -11z"/>
<path d="M2895 2166 c-30 -30 -32 -65 -6 -97 18 -23 27 -24 169 -29 150 -5
151 -5 181 -34 38 -36 48 -81 28 -129 -27 -63 -51 -72 -227 -75 -176 -4 -190
-10 -190 -72 0 -67 18 -74 205 -80 181 -6 194 -10 215 -76 25 -76 -24 -143
-109 -152 -104 -10 -223 26 -301 89 -19 17 -47 29 -62 29 -67 0 -93 -88 -40
-137 91 -87 207 -127 367 -128 103 0 113 2 163 29 86 48 134 126 136 221 1 33
-3 75 -7 93 l-9 32 146 0 146 0 0 -165 c0 -163 0 -166 25 -190 31 -32 69 -32
100 0 l25 24 0 361 0 360 59 0 c44 0 65 5 85 21 34 27 36 77 3 107 -22 21 -32
22 -223 22 -188 0 -202 -1 -222 -20 -14 -14 -22 -33 -22 -55 0 -54 30 -75 107
-75 l63 0 0 -120 0 -120 -146 0 -146 0 8 38 c32 136 -17 256 -128 318 -51 28
-58 29 -210 32 -157 4 -157 4 -183 -22z"/>
<path d="M971 3693 c-15 -12 -78 -166 -196 -480 -96 -255 -175 -469 -175 -476
0 -29 41 -67 71 -67 51 0 65 15 104 120 l38 100 219 -2 220 -3 33 -88 c18 -49
41 -97 51 -108 38 -42 124 -11 124 45 0 43 -347 939 -371 959 -12 9 -38 17
-59 17 -21 0 -47 -8 -59 -17z m142 -445 c42 -111 75 -203 73 -205 -2 -2 -73
-2 -158 -1 l-156 3 76 203 c41 111 78 202 82 202 3 0 41 -91 83 -202z"/>
</g>
</svg>
