<?xml version="1.0" standalone="no"?>
<!DOCTYPE svg PUBLIC "-//W3C//DTD SVG 20010904//EN"
 "http://www.w3.org/TR/2001/REC-SVG-20010904/DTD/svg10.dtd">
<svg version="1.0" xmlns="http://www.w3.org/2000/svg"
 width="512.000000pt" height="512.000000pt" viewBox="0 0 512.000000 512.000000"
 preserveAspectRatio="xMidYMid meet">

<g transform="translate(0.000000,512.000000) scale(0.100000,-0.100000)"
fill="#ffffff" stroke="none">
<path d="M3502 5110 c-628 -80 -1120 -531 -1254 -1153 -18 -84 -22 -134 -22
-287 0 -266 31 -402 144 -635 143 -296 369 -522 665 -665 233 -113 369 -144
635 -144 153 0 203 4 287 22 583 126 1010 556 1134 1142 32 151 32 410 0 560
-64 299 -187 527 -400 741 -214 214 -447 339 -741 399 -120 24 -335 34 -448
20z m78 -475 l0 -285 -57 5 c-32 3 -106 8 -165 11 -60 3 -108 9 -108 13 0 15
58 178 84 236 44 99 113 200 172 254 31 28 60 51 65 51 5 0 9 -118 9 -285z
m264 223 c70 -71 128 -163 179 -288 40 -99 71 -190 65 -195 -6 -6 -322 -23
-330 -18 -5 2 -8 130 -8 284 0 249 2 279 16 279 9 0 44 -28 78 -62z m-554 24
c0 -4 -8 -19 -17 -32 -55 -79 -155 -295 -177 -382 -3 -15 -10 -38 -15 -51 l-9
-24 -101 18 c-101 18 -138 27 -240 56 l-53 15 73 75 c133 134 274 230 441 299
88 36 98 38 98 26z m860 -28 c103 -41 227 -114 315 -184 89 -72 191 -178 180
-188 -15 -13 -161 -50 -278 -71 -56 -10 -102 -18 -103 -17 0 0 -15 46 -32 101
-34 108 -100 251 -156 340 -20 30 -31 55 -26 55 5 0 50 -16 100 -36z m-1400
-567 c74 -20 164 -41 200 -47 36 -6 70 -12 76 -15 8 -2 6 -40 -7 -127 -9 -67
-20 -171 -24 -230 l-7 -108 -295 0 -296 0 7 73 c13 128 60 279 129 415 35 69
45 83 62 79 11 -3 81 -21 155 -40z m2068 -64 c69 -147 121 -333 122 -440 l0
-23 -294 0 -294 0 -6 88 c-6 88 -34 319 -43 358 -4 19 1 22 53 29 59 7 363 81
372 90 3 3 13 5 22 5 12 0 33 -34 68 -107z m-1290 -39 l52 -5 0 -210 0 -209
-211 0 -210 0 6 98 c6 92 32 302 41 330 3 11 30 13 137 8 72 -4 156 -9 185
-12z m607 -6 c12 -56 34 -241 39 -325 l6 -93 -215 0 -215 0 0 210 c0 193 1
210 18 211 62 5 256 16 304 17 52 2 58 0 63 -20z m-1141 -700 c6 -93 30 -292
41 -343 4 -19 -5 -23 -113 -43 -64 -11 -157 -33 -207 -48 -144 -43 -135 -44
-172 25 -68 125 -116 274 -137 424 l-12 87 297 0 297 0 6 -102z m586 -107 c0
-181 -2 -210 -16 -215 -9 -3 -55 -6 -102 -7 -48 0 -123 -4 -167 -8 -46 -4 -83
-4 -86 2 -8 12 -37 232 -45 345 l-6 92 211 0 211 0 0 -209z m594 112 c-6 -92
-38 -341 -46 -347 -1 -2 -39 1 -83 5 -44 4 -118 8 -165 8 -143 2 -130 -21
-130 222 l0 209 215 0 214 0 -5 -97z m761 30 c-14 -138 -68 -312 -139 -444
l-36 -66 -107 33 c-60 18 -163 43 -231 55 -113 21 -123 25 -118 44 8 38 36
270 42 358 l6 87 295 0 295 0 -7 -67z m-1355 -813 c0 -157 -4 -280 -9 -280
-18 0 -114 95 -153 153 -49 72 -107 194 -142 301 -14 43 -26 82 -26 87 0 9 67
14 223 17 l107 2 0 -280z m428 273 l83 -6 -6 -26 c-16 -64 -89 -242 -128 -311
-44 -79 -164 -210 -191 -210 -14 0 -16 30 -16 280 l0 280 88 0 c48 0 124 -3
170 -7z m-910 -107 c32 -108 87 -235 143 -327 28 -45 48 -83 46 -86 -6 -6
-123 40 -197 77 -36 18 -99 56 -140 83 -95 64 -276 238 -258 248 30 15 305 76
354 78 30 1 32 -1 52 -73z m1277 60 c72 -13 123 -25 249 -57 l39 -11 -74 -75
c-86 -87 -202 -177 -294 -228 -78 -44 -234 -109 -242 -101 -3 3 6 23 20 44 58
89 141 272 172 385 19 65 14 63 130 43z"/>
<path d="M174 4167 c-78 -30 -143 -100 -164 -178 -7 -24 -9 -603 -8 -1621 l3
-1583 29 -53 c32 -57 79 -98 135 -118 28 -10 210 -13 829 -14 l792 0 0 -215 0
-215 -170 0 -170 0 0 -85 0 -85 770 0 770 0 0 85 0 85 -170 0 -170 0 0 215 0
215 793 0 792 0 50 24 c59 28 107 76 132 131 17 37 18 90 21 707 l3 668 -86 0
-85 0 0 -255 0 -255 -2050 0 -2050 0 0 1166 0 1166 29 29 29 29 911 0 911 0 0
85 0 85 -922 -1 c-681 0 -931 -4 -954 -12z m4094 -3033 l-3 -316 -28 -24 -28
-24 -1992 0 c-1550 1 -1996 3 -2008 13 -37 28 -39 50 -39 361 l0 306 2051 0
2050 0 -3 -316z m-1798 -749 l0 -215 -255 0 -255 0 0 215 0 215 255 0 255 0 0
-215z"/>
<path d="M2140 1257 c-118 -62 -118 -235 0 -294 77 -40 149 -25 207 40 74 85
42 219 -64 263 -47 20 -94 17 -143 -9z"/>
</g>
</svg>
